<svg version="1.2" baseProfile="tiny-ps" xmlns="http://www.w3.org/2000/svg" viewBox="0 0 1556 1298" width="1556" height="1298">
	<title>frontier_logo_white-svg-svg</title>
	<style>
		tspan { white-space:pre }
		.s0 { fill: #026845 } 
	</style>
	<g id="Layer">
		<g id="Layer">
			<g id="Layer">
				<g id="Layer">
					<path id="fbpsh" class="s0" d="m1550.35 0.06c3.83 0 5.44 3.83 5.44 5.44l-50.12 183.75c-22.31 82.84-104.07 178.25-214.05 178.25h-878.11c-102.39 0-162.32 40.32-162.32 40.32c-5.44 3.83-10.89 0-9.27-5.44l50.12-187.52c41.39-159.71 100.78-214.8 221.71-214.8h1036.66v0l-0.06 0zm-172.67 465.01c3.29 0 7.06 1.62 5.44 3.83l-33.79 121.01c-39.23 143.38-126.38 241-252.75 241h-806.22c-102.39 0-165.61 40.32-165.61 40.32c-5.44 3.83-11.42 0-9.27-5.44l50.12-185.91c50.12-168.98 102.39-214.8 221.71-214.8h989.77h0.54l0.06 0zm-664.59 465.01c3.29 0 5.44 3.83 5.44 5.44l-39.23 144.99c-40.85 149.36-131.82 216.95-241.87 216.95h-432c-3.83 0-5.44-1.62-5.44-5.44l43.06-160.31c40.85-150.5 100.24-201.7 217.88-201.7h452.15v0l0 0.06z" />
				</g>
			</g>
		</g>
	</g>
</svg>